<svg width="16" height="17" viewBox="0 0 16 17" fill="none" xmlns="http://www.w3.org/2000/svg">
<path d="M3.33073 8.72396H11.2374L8.8174 11.6306C8.76136 11.698 8.71916 11.7758 8.69319 11.8595C8.66722 11.9433 8.658 12.0313 8.66605 12.1186C8.6823 12.2949 8.76792 12.4575 8.90406 12.5706C9.04021 12.6838 9.21573 12.7382 9.39201 12.722C9.5683 12.7057 9.7309 12.6201 9.84406 12.484L13.1774 8.48396C13.1998 8.45214 13.2199 8.41872 13.2374 8.38396C13.2374 8.35063 13.2707 8.33063 13.2841 8.29729C13.3143 8.22085 13.3301 8.13949 13.3307 8.05729C13.3301 7.9751 13.3143 7.89373 13.2841 7.81729C13.2841 7.78396 13.2507 7.76396 13.2374 7.73063C13.2199 7.69587 13.1998 7.66244 13.1774 7.63063L9.84406 3.63063C9.78138 3.55537 9.70289 3.49485 9.61416 3.45337C9.52544 3.41189 9.42867 3.39047 9.33073 3.39063C9.17496 3.39032 9.024 3.44457 8.90406 3.54396C8.83656 3.59993 8.78076 3.66866 8.73985 3.74622C8.69895 3.82379 8.67375 3.90866 8.6657 3.99598C8.65765 4.0833 8.66691 4.17134 8.69294 4.25508C8.71897 4.33882 8.76126 4.41659 8.8174 4.48396L11.2374 7.39063H3.33073C3.15392 7.39063 2.98435 7.46086 2.85932 7.58589C2.7343 7.71091 2.66406 7.88048 2.66406 8.05729C2.66406 8.2341 2.7343 8.40367 2.85932 8.5287C2.98435 8.65372 3.15392 8.72396 3.33073 8.72396Z" fill="#185594"/>
</svg>
