<svg width="16" height="17" viewBox="0 0 16 17" fill="none" xmlns="http://www.w3.org/2000/svg">
<path d="M12.6693 7.39323L4.7626 7.39323L7.1826 4.48656C7.23864 4.41915 7.28084 4.34136 7.30681 4.25764C7.33278 4.17392 7.342 4.0859 7.33395 3.99861C7.3177 3.82233 7.23208 3.65972 7.09594 3.54656C6.95979 3.4334 6.78427 3.37896 6.60799 3.39522C6.4317 3.41147 6.2691 3.49708 6.15594 3.63323L2.8226 7.63323C2.80018 7.66504 2.78012 7.69847 2.7626 7.73323C2.7626 7.76656 2.72927 7.78656 2.71594 7.8199C2.68572 7.89633 2.6699 7.9777 2.66927 8.0599C2.6699 8.14209 2.68572 8.22346 2.71594 8.29989C2.71594 8.33323 2.74927 8.35323 2.7626 8.38656C2.78012 8.42132 2.80018 8.45475 2.8226 8.48656L6.15594 12.4866C6.21862 12.5618 6.29711 12.6223 6.38584 12.6638C6.47456 12.7053 6.57133 12.7267 6.66927 12.7266C6.82504 12.7269 6.976 12.6726 7.09594 12.5732C7.16344 12.5173 7.21924 12.4485 7.26015 12.371C7.30105 12.2934 7.32624 12.2085 7.3343 12.1212C7.34235 12.0339 7.33309 11.9458 7.30706 11.8621C7.28103 11.7784 7.23874 11.7006 7.1826 11.6332L4.7626 8.72656H12.6693C12.8461 8.72656 13.0157 8.65632 13.1407 8.5313C13.2657 8.40627 13.3359 8.23671 13.3359 8.0599C13.3359 7.88308 13.2657 7.71351 13.1407 7.58849C13.0157 7.46347 12.8461 7.39323 12.6693 7.39323Z" fill="#185594"/>
</svg>
