<svg width="32" height="33" viewBox="0 0 32 33" fill="none" xmlns="http://www.w3.org/2000/svg">
<g id="Attachment" clip-path="url(#clip0_379_27)">
<path id="Vector" d="M2.66699 17.5482C2.66699 13.4882 5.94699 10.2029 10.0003 10.2029H24.0003C26.947 10.2029 29.3337 12.5935 29.3337 15.5449C29.3337 18.4964 26.947 20.887 24.0003 20.887H12.667C10.827 20.887 9.33366 19.3912 9.33366 17.5482C9.33366 15.7052 10.827 14.2094 12.667 14.2094H22.667V16.8805H12.547C11.8137 16.8805 11.8137 18.216 12.547 18.216H24.0003C25.467 18.216 26.667 17.014 26.667 15.5449C26.667 14.0759 25.467 12.8739 24.0003 12.8739H10.0003C7.42699 12.8739 5.33366 14.9707 5.33366 17.5482C5.33366 20.1258 7.42699 22.2225 10.0003 22.2225H22.667V24.8936H10.0003C5.94699 24.8936 2.66699 21.6082 2.66699 17.5482Z" fill="#003366" fill-opacity="0.32"/>
</g>
<defs>
<clipPath id="clip0_379_27">
<rect width="32" height="32.0524" fill="white" transform="translate(0 0.854248)"/>
</clipPath>
</defs>
</svg>
