<svg width="35" height="35" viewBox="0 0 35 35" fill="none" xmlns="http://www.w3.org/2000/svg">
<g id="facebook-tag 1">
<path id="Vector" d="M30.399 12.0218V23.4468C30.399 25.3406 29.6537 27.1569 28.3271 28.496C27.0005 29.8351 25.2012 30.5874 23.325 30.5874H12.0066C10.1305 30.5874 8.33118 29.8351 7.00454 28.496C5.67791 27.1569 4.93262 25.3406 4.93262 23.4468V12.0218C4.93262 10.1279 5.67791 8.31168 7.00454 6.97255C8.33118 5.63342 10.1305 4.8811 12.0066 4.8811H23.325C25.2012 4.8811 27.0005 5.63342 28.3271 6.97255C29.6537 8.31168 30.399 10.1279 30.399 12.0218Z" stroke="#003366" stroke-width="2" stroke-linecap="round" stroke-linejoin="round"/>
<path id="Vector_2" d="M16.2515 30.5874V17.7342C16.2515 14.6095 16.9589 12.0217 21.9107 12.0217M13.4219 19.1624H21.9107" stroke="#003366" stroke-width="2" stroke-linecap="round" stroke-linejoin="round"/>
</g>
</svg>
