<svg width="20" height="20" viewBox="0 0 20 20" fill="none" xmlns="http://www.w3.org/2000/svg">
<g id="facebook-tag 1">
<path id="Vector" d="M17.4255 6.8133V13.0865C17.4255 14.1263 17.0106 15.1236 16.272 15.8588C15.5334 16.5941 14.5317 17.0072 13.4872 17.0072H7.18588C6.14137 17.0072 5.13965 16.5941 4.40107 15.8588C3.66249 15.1236 3.24756 14.1263 3.24756 13.0865V6.8133C3.24756 5.77346 3.66249 4.77621 4.40107 4.04093C5.13965 3.30565 6.14137 2.89258 7.18588 2.89258H13.4872C14.5317 2.89258 15.5334 3.30565 16.272 4.04093C17.0106 4.77621 17.4255 5.77346 17.4255 6.8133Z" stroke="white" stroke-width="0.5" stroke-linecap="round" stroke-linejoin="round"/>
<path id="Vector_2" d="M9.54896 17.0074V9.95006C9.54896 8.23435 9.9428 6.81348 12.6996 6.81348M7.97363 10.7342H12.6996" stroke="white" stroke-width="0.5" stroke-linecap="round" stroke-linejoin="round"/>
</g>
</svg>
