<svg width="35" height="35" viewBox="0 0 35 35" fill="none" xmlns="http://www.w3.org/2000/svg">
<g id="instagram 1">
<path id="Vector" d="M17.4092 23.4468C18.9101 23.4468 20.3496 22.8449 21.4109 21.7736C22.4722 20.7023 23.0684 19.2493 23.0684 17.7342C23.0684 16.2192 22.4722 14.7662 21.4109 13.6949C20.3496 12.6236 18.9101 12.0217 17.4092 12.0217C15.9083 12.0217 14.4688 12.6236 13.4075 13.6949C12.3462 14.7662 11.75 16.2192 11.75 17.7342C11.75 19.2493 12.3462 20.7023 13.4075 21.7736C14.4688 22.8449 15.9083 23.4468 17.4092 23.4468Z" stroke="#003366" stroke-width="2" stroke-linecap="round" stroke-linejoin="round"/>
<path id="Vector_2" d="M4.67578 23.4468V12.0218C4.67578 10.1279 5.42108 8.31168 6.74771 6.97255C8.07434 5.63342 9.87364 4.8811 11.7498 4.8811H23.0682C24.9443 4.8811 26.7436 5.63342 28.0702 6.97255C29.3969 8.31168 30.1422 10.1279 30.1422 12.0218V23.4468C30.1422 25.3406 29.3969 27.1569 28.0702 28.496C26.7436 29.8351 24.9443 30.5874 23.0682 30.5874H11.7498C9.87364 30.5874 8.07434 29.8351 6.74771 28.496C5.42108 27.1569 4.67578 25.3406 4.67578 23.4468Z" stroke="#003366" stroke-width="2"/>
<path id="Vector_3" d="M25.1904 9.89272L25.2038 9.87805" stroke="#003366" stroke-width="2" stroke-linecap="round" stroke-linejoin="round"/>
</g>
</svg>
