<svg width="20" height="20" viewBox="0 0 20 20" fill="none" xmlns="http://www.w3.org/2000/svg">
<g id="instagram 1">
<path id="Vector" d="M9.88601 13.0866C10.7216 13.0866 11.523 12.7562 12.1139 12.168C12.7047 11.5797 13.0367 10.7819 13.0367 9.95006C13.0367 9.11818 12.7047 8.32038 12.1139 7.73216C11.523 7.14394 10.7216 6.81348 9.88601 6.81348C9.0504 6.81348 8.24902 7.14394 7.65816 7.73216C7.0673 8.32038 6.73535 9.11818 6.73535 9.95006C6.73535 10.7819 7.0673 11.5797 7.65816 12.168C8.24902 12.7562 9.0504 13.0866 9.88601 13.0866Z" stroke="white" stroke-width="0.5" stroke-linecap="round" stroke-linejoin="round"/>
<path id="Vector_2" d="M2.79688 13.0865V6.8133C2.79688 5.77346 3.2118 4.77621 3.95038 4.04093C4.68896 3.30565 5.69069 2.89258 6.7352 2.89258H13.0365C14.081 2.89258 15.0828 3.30565 15.8213 4.04093C16.5599 4.77621 16.9748 5.77346 16.9748 6.8133V13.0865C16.9748 14.1263 16.5599 15.1236 15.8213 15.8588C15.0828 16.5941 14.081 17.0072 13.0365 17.0072H6.7352C5.69069 17.0072 4.68896 16.5941 3.95038 15.8588C3.2118 15.1236 2.79688 14.1263 2.79688 13.0865Z" stroke="white" stroke-width="0.5"/>
<path id="Vector_3" d="M14.2183 5.64361L14.2254 5.63574" stroke="white" stroke-linecap="round" stroke-linejoin="round"/>
</g>
</svg>
