<svg width="35" height="35" viewBox="0 0 35 35" fill="none" xmlns="http://www.w3.org/2000/svg">
<g id="linkedin 1">
<path id="Vector" d="M10.4639 24.8749V14.878M30.2711 12.0218V23.4468C30.2711 25.3406 29.5258 27.1569 28.1992 28.496C26.8725 29.8351 25.0732 30.5874 23.1971 30.5874H11.8787C10.0025 30.5874 8.20325 29.8351 6.87661 28.496C5.54998 27.1569 4.80469 25.3406 4.80469 23.4468V12.0218C4.80469 10.1279 5.54998 8.31168 6.87661 6.97255C8.20325 5.63342 10.0025 4.8811 11.8787 4.8811H23.1971C25.0732 4.8811 26.8725 5.63342 28.1992 6.97255C29.5258 8.31168 30.2711 10.1279 30.2711 12.0218Z" stroke="#003366" stroke-width="2" stroke-linecap="round" stroke-linejoin="round"/>
<path id="Vector_2" d="M16.1231 24.8749V20.2335M16.1231 20.2335V14.878M16.1231 20.2335C16.1231 14.878 24.6119 14.878 24.6119 20.2335V24.8749M10.4639 10.6079L10.478 10.5922" stroke="#003366" stroke-width="2" stroke-linecap="round" stroke-linejoin="round"/>
</g>
</svg>
