<svg width="20" height="20" viewBox="0 0 20 20" fill="none" xmlns="http://www.w3.org/2000/svg">
<g id="linkedin 1">
<path id="Vector" d="M6.17263 13.8706V8.38159M17.1999 6.8133V13.0865C17.1999 14.1263 16.785 15.1236 16.0464 15.8588C15.3079 16.5941 14.3061 17.0072 13.2616 17.0072H6.9603C5.91579 17.0072 4.91406 16.5941 4.17548 15.8588C3.4369 15.1236 3.02197 14.1263 3.02197 13.0865V6.8133C3.02197 5.77346 3.4369 4.77621 4.17548 4.04093C4.91406 3.30565 5.91579 2.89258 6.9603 2.89258H13.2616C14.3061 2.89258 15.3079 3.30565 16.0464 4.04093C16.785 4.77621 17.1999 5.77346 17.1999 6.8133Z" stroke="white" stroke-width="0.5" stroke-linecap="round" stroke-linejoin="round"/>
<path id="Vector_2" d="M9.32351 13.8706V11.3221M9.32351 11.3221V8.38154M9.32351 11.3221C9.32351 8.38154 14.0495 8.38154 14.0495 11.3221V13.8706M6.17285 6.03695L6.18073 6.02832" stroke="white" stroke-width="0.5" stroke-linecap="round" stroke-linejoin="round"/>
</g>
</svg>
