<svg width="248" height="60" viewBox="0 0 248 60" fill="none" xmlns="http://www.w3.org/2000/svg">
<path d="M58.1998 22.6739C58.1998 32.3319 50.6151 40.2183 41.0772 40.7021C46.7505 38.4237 50.8954 31.2147 50.8954 22.6739V22.6736C50.8951 16.7378 46.0837 11.9262 40.1479 11.9262H5.49925C5.48351 11.9265 5.46776 11.9265 5.452 11.9265C3.4351 11.9265 1.7998 10.2912 1.7998 8.27433C1.7998 6.25713 3.4351 4.62213 5.452 4.62213H40.1479V4.62183C40.4595 4.62183 40.7692 4.62978 41.077 4.64538H41.0773C50.6151 5.12913 58.1998 13.0155 58.1998 22.6739Z" fill="url(#paint0_linear_283_218)"/>
<path d="M50.8955 22.6738C50.8955 31.2147 46.7505 38.4237 41.0772 40.702H41.0769C40.7693 40.7175 40.4595 40.7256 40.1478 40.7256H19.1478C19.0283 40.7256 18.9102 40.7199 18.7935 40.7085C16.9428 40.5304 15.4956 38.9709 15.4956 37.0734C15.4956 35.176 16.9428 33.6163 18.7935 33.4383C18.9102 33.4269 19.0281 33.4212 19.1478 33.4212H40.148C46.0838 33.421 50.8955 28.6093 50.8955 22.6738Z" fill="url(#paint1_linear_283_218)"/>
<path d="M1.7998 37.326C1.7998 27.668 9.38456 19.7816 18.9225 19.2979C13.2492 21.5762 9.10421 28.785 9.10421 37.326V37.3263C9.10451 43.2621 13.9159 48.0737 19.8517 48.0737H54.5004C54.5161 48.0734 54.5319 48.0734 54.5476 48.0734C56.5645 48.0734 58.1998 49.7087 58.1998 51.7256C58.1998 53.7428 56.5645 55.3778 54.5476 55.3778H19.8517V55.3781C19.5402 55.3781 19.2304 55.3702 18.9226 55.3545H18.9223C9.38456 54.8708 1.7998 46.9844 1.7998 37.326Z" fill="url(#paint2_linear_283_218)"/>
<path d="M9.104 37.3262C9.104 28.7853 13.249 21.5763 18.9223 19.298H18.9226C19.2302 19.2825 19.54 19.2744 19.8517 19.2744H40.8518C40.9714 19.2744 41.0894 19.2801 41.2061 19.2915C43.0568 19.4696 44.504 21.0291 44.504 22.9266C44.504 24.824 43.0568 26.3837 41.2061 26.5617C41.0894 26.5731 40.9715 26.5788 40.8518 26.5788H19.8515C13.9157 26.579 9.104 31.3907 9.104 37.3262Z" fill="url(#paint3_linear_283_218)"/>
<g clip-path="url(#clip0_283_218)">
<path d="M71.3682 21.5923C73.2141 19.71 75.5624 18.7688 78.4129 18.7688C82.2277 18.7688 85.0164 20.0309 86.7804 22.5543C87.7545 23.9712 88.2773 25.3932 88.3492 26.8206H83.5608C83.256 25.7246 82.8651 24.8969 82.3878 24.3385C81.5347 23.3456 80.2707 22.8494 78.5954 22.8494C76.8891 22.8494 75.5437 23.5504 74.5586 24.9514C73.574 26.3529 73.0812 28.336 73.0812 30.9007C73.0812 33.4658 73.6009 35.3867 74.6401 36.6638C75.6793 37.9414 76.9997 38.5797 78.6018 38.5797C80.2443 38.5797 81.4965 38.0317 82.3582 36.9353C82.8346 36.346 83.23 35.4616 83.5444 34.2826H88.3019C87.8915 36.775 86.8432 38.8022 85.1565 40.3639C83.4694 41.9257 81.3086 42.7066 78.6732 42.7066C75.4122 42.7066 72.8487 41.6515 70.9823 39.5417C69.1173 37.4215 68.1841 34.515 68.1841 30.8226C68.1841 26.8305 69.2456 23.7538 71.3682 21.5923Z" fill="white"/>
<path d="M109.821 40.0378C108.089 41.8166 105.586 42.706 102.311 42.706C99.0357 42.706 96.5327 41.8166 94.8019 40.0378C92.48 37.8559 91.3193 34.7115 91.3193 30.6054C91.3193 26.4168 92.48 23.2728 94.8019 21.1731C96.5327 19.3943 99.0361 18.5049 102.311 18.5049C105.586 18.5049 108.09 19.3943 109.821 21.1731C112.132 23.2728 113.288 26.4168 113.288 30.6054C113.288 34.7115 112.132 37.8554 109.821 40.0378ZM106.828 36.5624C107.942 35.1664 108.499 33.1805 108.499 30.605C108.499 28.0403 107.941 26.0572 106.828 24.6557C105.713 23.2542 104.208 22.5537 102.311 22.5537C100.414 22.5537 98.9005 23.2519 97.7708 24.648C96.641 26.0441 96.0759 28.0299 96.0759 30.6054C96.0759 33.1806 96.6406 35.1664 97.7708 36.5629C98.9005 37.9589 100.414 38.6572 102.311 38.6572C104.208 38.6572 105.713 37.9589 106.828 36.5624Z" fill="white"/>
<path d="M130.37 19.6993C131.977 20.2269 133.28 21.1939 134.276 22.6004C135.075 23.7382 135.619 24.969 135.909 26.2929C136.2 27.6167 136.345 28.8784 136.345 30.0783C136.345 33.1188 135.733 35.6943 134.509 37.8041C132.85 40.6484 130.288 42.0704 126.823 42.0704H116.942V19.2031H126.823C128.244 19.2236 129.426 19.3893 130.37 19.6993ZM121.59 23.1743V38.0983H126.013C128.276 38.0983 129.854 36.9864 130.747 34.7627C131.234 33.5424 131.479 32.0891 131.479 30.4034C131.479 28.0762 131.112 26.2897 130.381 25.0434C129.649 23.7972 128.193 23.1738 126.013 23.1738H121.59V23.1743Z" fill="white"/>
<path d="M156.883 23.2519H144.756V28.1075H155.888V32.0791H144.756V37.9589H157.443V42.0699H140.076V19.2026H156.883V23.2519Z" fill="white"/>
<path d="M164.627 35.011C164.775 36.0557 165.066 36.8366 165.5 37.3537C166.293 38.2949 167.653 38.7657 169.58 38.7657C170.733 38.7657 171.67 38.6417 172.389 38.3934C173.755 37.9176 174.437 37.0336 174.437 35.7406C174.437 34.9856 174.103 34.4013 173.434 33.9877C172.765 33.5846 171.705 33.2277 170.252 32.9172L167.771 32.3742C165.333 31.8367 163.657 31.2524 162.745 30.6213C161.2 29.5662 160.429 27.9168 160.429 25.6726C160.429 23.6246 161.184 21.9235 162.695 20.5687C164.206 19.214 166.425 18.5366 169.353 18.5366C171.797 18.5366 173.883 19.1754 175.609 20.4525C177.335 21.7301 178.24 23.5838 178.324 26.0141H173.722C173.636 24.6389 173.02 23.6614 171.872 23.0821C171.107 22.6994 170.156 22.5082 169.02 22.5082C167.755 22.5082 166.745 22.7566 165.991 23.2528C165.237 23.749 164.859 24.4423 164.859 25.3317C164.859 26.1489 165.231 26.7591 165.975 27.1622C166.453 27.4315 167.468 27.7465 169.02 28.1084L173.042 29.0545C174.804 29.4681 176.126 30.0216 177.005 30.7144C178.371 31.7903 179.055 33.3467 179.055 35.3838C179.055 37.4731 178.245 39.2079 176.626 40.5885C175.008 41.9691 172.721 42.6597 169.767 42.6597C166.75 42.6597 164.376 41.9795 162.648 40.6198C160.919 39.2601 160.055 37.3905 160.055 35.0115H164.627V35.011Z" fill="white"/>
<path d="M195.488 19.2031H200.915L193.25 33.4961V42.0704H188.461V33.4961L180.532 19.2031H186.176L190.933 29.1631L195.488 19.2031Z" fill="white"/>
<path d="M203.573 19.2031H208.593L217.69 35.1477V19.2031H222.152V42.0704H217.365L208.035 25.8452V42.0704H203.573V19.2031Z" fill="white"/>
<path d="M228.835 21.5923C230.681 19.71 233.029 18.7688 235.88 18.7688C239.694 18.7688 242.483 20.0309 244.247 22.5543C245.221 23.9712 245.744 25.3932 245.816 26.8206H241.027C240.722 25.7246 240.331 24.8969 239.854 24.3385C239.001 23.3456 237.737 22.8494 236.062 22.8494C234.355 22.8494 233.01 23.5504 232.025 24.9514C231.04 26.3529 230.548 28.336 230.548 30.9007C230.548 33.4658 231.067 35.3867 232.106 36.6638C233.146 37.9414 234.466 38.5797 236.068 38.5797C237.711 38.5797 238.963 38.0317 239.825 36.9353C240.301 36.346 240.697 35.4616 241.011 34.2826H245.769C245.358 36.775 244.31 38.8022 242.623 40.3639C240.936 41.9257 238.775 42.7066 236.14 42.7066C232.879 42.7066 230.315 41.6515 228.449 39.5417C226.583 37.4215 225.65 34.5155 225.65 30.823C225.651 26.8305 226.712 23.7538 228.835 21.5923Z" fill="white"/>
</g>
<defs>
<linearGradient id="paint0_linear_283_218" x1="1.7998" y1="22.662" x2="58.1998" y2="22.662" gradientUnits="userSpaceOnUse">
<stop stop-color="white"/>
<stop offset="1" stop-color="white"/>
</linearGradient>
<linearGradient id="paint1_linear_283_218" x1="15.4956" y1="31.6996" x2="50.8955" y2="31.6996" gradientUnits="userSpaceOnUse">
<stop stop-color="white"/>
<stop offset="0.7905" stop-color="white"/>
<stop offset="1" stop-color="white"/>
</linearGradient>
<linearGradient id="paint2_linear_283_218" x1="58.1998" y1="37.338" x2="1.7998" y2="37.338" gradientUnits="userSpaceOnUse">
<stop stop-color="white"/>
<stop offset="1" stop-color="white"/>
</linearGradient>
<linearGradient id="paint3_linear_283_218" x1="44.5039" y1="28.3004" x2="9.104" y2="28.3004" gradientUnits="userSpaceOnUse">
<stop stop-color="white"/>
<stop offset="0.7905" stop-color="white"/>
<stop offset="1" stop-color="white"/>
</linearGradient>
<clipPath id="clip0_283_218">
<rect width="182" height="38" fill="white" transform="translate(66 11)"/>
</clipPath>
</defs>
</svg>
