<svg width="93" height="82" viewBox="0 0 93 82" fill="none" xmlns="http://www.w3.org/2000/svg">
<g id="&#240;&#159;&#166;&#134; icon &#34;quote down&#34;">
<g id="Group">
<path id="Vector" d="M64.2037 42.3771H85.8538C85.4845 63.935 81.2376 67.4895 67.989 75.3371C66.4656 76.2604 65.9578 78.1992 66.8811 79.7687C67.8043 81.2921 69.7431 81.7999 71.3127 80.8766C86.9156 71.6441 92.3628 66.0123 92.3628 39.1457V14.2642C92.3628 6.37042 85.9462 0 78.0986 0H64.2498C56.1252 0 49.9856 6.13961 49.9856 14.2642V28.1129C49.9394 36.2375 56.0791 42.3771 64.2037 42.3771Z" fill="#003366"/>
<path id="Vector_2" d="M14.2642 42.3771H35.9144C35.5451 63.935 31.2982 67.4895 18.0495 75.3371C16.5262 76.2604 16.0184 78.1992 16.9416 79.7687C17.8649 81.2921 19.8037 81.7999 21.3732 80.8766C36.9761 71.6441 42.4233 66.0123 42.4233 39.1457V14.2642C42.4233 6.37042 36.0067 0 28.1591 0H14.3104C6.13961 0 0 6.13961 0 14.2642V28.1129C0 36.2375 6.13961 42.3771 14.2642 42.3771Z" fill="#003366"/>
</g>
</g>
</svg>
